<svg id="mermaid-1608228168121" width="100%" xmlns="http://www.w3.org/2000/svg" xmlns:xlink="http://www.w3.org/1999/xlink" height="482" style="max-width: 567.703125px;" viewBox="-20 -20 567.703125 482"><style>#mermaid-1608228168121{font-family:"trebuchet ms",verdana,arial,sans-serif;font-size:16px;fill:#333;}#mermaid-1608228168121 .error-icon{fill:#552222;}#mermaid-1608228168121 .error-text{fill:#552222;stroke:#552222;}#mermaid-1608228168121 .edge-thickness-normal{stroke-width:2px;}#mermaid-1608228168121 .edge-thickness-thick{stroke-width:3.5px;}#mermaid-1608228168121 .edge-pattern-solid{stroke-dasharray:0;}#mermaid-1608228168121 .edge-pattern-dashed{stroke-dasharray:3;}#mermaid-1608228168121 .edge-pattern-dotted{stroke-dasharray:2;}#mermaid-1608228168121 .marker{fill:#333333;}#mermaid-1608228168121 .marker.cross{stroke:#333333;}#mermaid-1608228168121 svg{font-family:"trebuchet ms",verdana,arial,sans-serif;font-size:16px;}#mermaid-1608228168121 g.classGroup text{fill:#9370DB;fill:#131300;stroke:none;font-family:"trebuchet ms",verdana,arial,sans-serif;font-size:10px;}#mermaid-1608228168121 g.classGroup text .title{font-weight:bolder;}#mermaid-1608228168121 .classTitle{font-weight:bolder;}#mermaid-1608228168121 .node rect,#mermaid-1608228168121 .node circle,#mermaid-1608228168121 .node ellipse,#mermaid-1608228168121 .node polygon,#mermaid-1608228168121 .node path{fill:#ECECFF;stroke:#9370DB;stroke-width:1px;}#mermaid-1608228168121 .divider{stroke:#9370DB;stroke:1;}#mermaid-1608228168121 g.clickable{cursor:pointer;}#mermaid-1608228168121 g.classGroup rect{fill:#ECECFF;stroke:#9370DB;}#mermaid-1608228168121 g.classGroup line{stroke:#9370DB;stroke-width:1;}#mermaid-1608228168121 .classLabel .box{stroke:none;stroke-width:0;fill:#ECECFF;opacity:0.5;}#mermaid-1608228168121 .classLabel .label{fill:#9370DB;font-size:10px;}#mermaid-1608228168121 .relation{stroke:#333333;stroke-width:1;fill:none;}#mermaid-1608228168121 .dashed-line{stroke-dasharray:3;}#mermaid-1608228168121 #compositionStart,#mermaid-1608228168121 .composition{fill:#333333 !important;stroke:#333333 !important;stroke-width:1;}#mermaid-1608228168121 #compositionEnd,#mermaid-1608228168121 .composition{fill:#333333 !important;stroke:#333333 !important;stroke-width:1;}#mermaid-1608228168121 #dependencyStart,#mermaid-1608228168121 .dependency{fill:#333333 !important;stroke:#333333 !important;stroke-width:1;}#mermaid-1608228168121 #dependencyStart,#mermaid-1608228168121 .dependency{fill:#333333 !important;stroke:#333333 !important;stroke-width:1;}#mermaid-1608228168121 #extensionStart,#mermaid-1608228168121 .extension{fill:#333333 !important;stroke:#333333 !important;stroke-width:1;}#mermaid-1608228168121 #extensionEnd,#mermaid-1608228168121 .extension{fill:#333333 !important;stroke:#333333 !important;stroke-width:1;}#mermaid-1608228168121 #aggregationStart,#mermaid-1608228168121 .aggregation{fill:#ECECFF !important;stroke:#333333 !important;stroke-width:1;}#mermaid-1608228168121 #aggregationEnd,#mermaid-1608228168121 .aggregation{fill:#ECECFF !important;stroke:#333333 !important;stroke-width:1;}#mermaid-1608228168121 .edgeTerminals{font-size:11px;}#mermaid-1608228168121:root{--mermaid-font-family:"trebuchet ms",verdana,arial,sans-serif;}#mermaid-1608228168121 class{fill:apa;}</style><g></g><defs><marker id="extensionStart" class="extension" refX="0" refY="7" markerWidth="190" markerHeight="240" orient="auto"><path d="M 1,7 L18,13 V 1 Z"></path></marker></defs><defs><marker id="extensionEnd" refX="19" refY="7" markerWidth="20" markerHeight="28" orient="auto"><path d="M 1,1 V 13 L18,7 Z"></path></marker></defs><defs><marker id="compositionStart" class="extension" refX="0" refY="7" markerWidth="190" markerHeight="240" orient="auto"><path d="M 18,7 L9,13 L1,7 L9,1 Z"></path></marker></defs><defs><marker id="compositionEnd" refX="19" refY="7" markerWidth="20" markerHeight="28" orient="auto"><path d="M 18,7 L9,13 L1,7 L9,1 Z"></path></marker></defs><defs><marker id="aggregationStart" class="extension" refX="0" refY="7" markerWidth="190" markerHeight="240" orient="auto"><path d="M 18,7 L9,13 L1,7 L9,1 Z"></path></marker></defs><defs><marker id="aggregationEnd" refX="19" refY="7" markerWidth="20" markerHeight="28" orient="auto"><path d="M 18,7 L9,13 L1,7 L9,1 Z"></path></marker></defs><defs><marker id="dependencyStart" class="extension" refX="0" refY="7" markerWidth="190" markerHeight="240" orient="auto"><path d="M 5,7 L9,13 L1,7 L9,1 Z"></path></marker></defs><defs><marker id="dependencyEnd" refX="19" refY="7" markerWidth="20" markerHeight="28" orient="auto"><path d="M 18,7 L9,13 L14,7 L9,1 Z"></path></marker></defs><g id="classid-SearchFactory-25" class="classGroup" transform="translate(84.5546875,90 )"><rect x="0" y="0" width="148.6875" height="77" class=" "></rect><text y="15" x="0"><tspan x="49.3828125">«interface»</tspan><tspan class="title" dy="10" x="39.3828125">SearchFactory</tspan></text><line x1="0" y1="31" y2="31" x2="148.6875"></line><text x="5" y="41" fill="white" class="classText"></text><line x1="0" y1="36" y2="36" x2="148.6875"></line><text x="5" y="51" fill="white" class="classText"><tspan x="5">+createEmptySearchFilter()</tspan><tspan x="5" dy="10">+createSearchFilterIntent()</tspan><tspan x="5" dy="10">+createSearchableFragment()</tspan></text></g><g id="classid-SearchableActivity-26" class="classGroup" transform="translate(74.1953125,355 )"><rect x="0" y="0" width="149.40625" height="87" class=" "></rect><text y="15" x="0"><tspan x="49.7421875">«interface»</tspan><tspan class="title" dy="10" x="29.734375">SearchableActivity</tspan></text><line x1="0" y1="31" y2="31" x2="149.40625"></line><text x="5" y="41" fill="white" class="classText"></text><line x1="0" y1="36" y2="36" x2="149.40625"></line><text x="5" y="51" fill="white" class="classText"><tspan x="5">+showLoadingAnimation()</tspan><tspan x="5" dy="10">+hideLoadingAnimation()</tspan><tspan x="5" dy="10">+notifyInvalidFilter()</tspan><tspan x="5" dy="10">+setAppBarTitle(title: String)</tspan></text></g><g id="classid-SearchableFragment-27" class="classGroup" transform="translate(0,217 )"><rect x="0" y="0" width="297.796875" height="88" class=" "></rect><text y="15" x="0"><tspan x="125.328125">«abstract»</tspan><tspan class="title" dy="10" x="39.3203125">SearchableFragment&lt;Filter: SearchableFilter&gt;</tspan></text><line x1="0" y1="31" y2="31" x2="297.796875"></line><text x="5" y="41" fill="white" class="classText"><tspan x="5">#searchableActivity: SearchableActivity</tspan></text><line x1="0" y1="47" y2="47" x2="297.796875"></line><text x="5" y="62" fill="white" class="classText"><tspan x="5">+newInstance(filter: SearchFilter) : SearchableFragment&lt;Filter&gt;</tspan><tspan x="5" style="font-style:italic;" dy="10">#createSearchableFragment() : SearchableFragment&lt;Filter&gt;</tspan><tspan x="5" dy="10">#getSearchFilter() : Filter</tspan></text></g><g id="classid-SearchFilter-28" class="classGroup" transform="translate(347.796875,222.5 )"><rect x="0" y="0" width="179.90625" height="77" class=" "></rect><text y="15" x="0"><tspan x="66.3828125">«abstract»</tspan><tspan class="title" dy="10" x="60.984375">SearchFilter</tspan></text><line x1="0" y1="31" y2="31" x2="179.90625"></line><text x="5" y="41" fill="white" class="classText"></text><line x1="0" y1="36" y2="36" x2="179.90625"></line><text x="5" y="51" fill="white" class="classText"><tspan x="5" style="text-decoration:underline;">+getFilterFrom(bundle) : SearchFilter</tspan><tspan x="5" style="font-style:italic;" dy="10">+isEmpty() : boolean</tspan><tspan x="5" style="font-style:italic;" dy="10">+toBundle() : Bundle</tspan></text></g><g id="classid-Parcelable-29" class="classGroup" transform="translate(238.34765625,0 )"><rect x="0" y="0" width="109.953125" height="40" class=" "></rect><text y="15" x="0"><tspan x="30.015625">«interface»</tspan><tspan class="title" dy="10" x="29.734375">Parcelable</tspan></text><line x1="0" y1="31" y2="31" x2="109.953125"></line><text x="5" y="41" fill="white" class="classText"></text><line x1="0" y1="36" y2="36" x2="109.953125"></line><text x="5" y="51" fill="white" class="classText"></text></g><path d="M238.34765625,38.40380088919885L225.10611979166666,42.83650074099904C211.86458333333334,47.26920059279923,185.38151041666666,56.13460029639962,172.13997395833334,64.73396681486648C158.8984375,73.33333333333333,158.8984375,81.66666666666667,158.8984375,85.83333333333333L158.8984375,90" id="edge18" class="relation dashed-line" marker-start="url(#extensionStart)"></path><path d="M348.30078125,36.02028684896163L364.8756510416667,40.85023904080136C381.4505208333333,45.680191232641086,414.6002604166667,55.340095616320546,431.1751302083333,70.7533811414936C447.75,86.16666666666667,447.75,107.33333333333333,447.75,128.5C447.75,149.66666666666666,447.75,170.83333333333334,447.0132850241546,186.5C446.27657004830917,202.16666666666666,444.80314009661834,212.33333333333334,444.0664251207729,217.41666666666666L443.32971014492756,222.5" id="edge19" class="relation dashed-line" marker-start="url(#extensionStart)"></path><path d="M152.83544537401576,167L152.17927739501314,171.16666666666666C151.5231094160105,175.33333333333334,150.21077345800526,183.66666666666666,149.55460547900262,192C148.8984375,200.33333333333334,148.8984375,208.66666666666666,148.8984375,212.83333333333334L148.8984375,217" id="edge20" class="relation" marker-end="url(#dependencyEnd)"></path><path d="M233.2421875,161.1868796148541L244.92252604166666,166.32239967904508C256.6028645833333,171.45791974323606,279.9635416666667,181.72895987161803,301.54722882699275,191.94781326914236C323.1309159873188,202.16666666666666,342.9376132246377,212.33333333333334,352.84096184329707,217.41666666666666L362.7443104619565,222.5" id="edge21" class="relation" marker-end="url(#dependencyEnd)"></path><path d="M148.8984375,305L148.8984375,309.1666666666667C148.8984375,313.3333333333333,148.8984375,321.6666666666667,148.8984375,330C148.8984375,338.3333333333333,148.8984375,346.6666666666667,148.8984375,350.8333333333333L148.8984375,355" id="edge22" class="relation" marker-end="url(#dependencyEnd)"></path></svg>