<svg id="mermaid-1608147164291" width="100%" xmlns="http://www.w3.org/2000/svg" height="345" style="max-width: 767.109375px;" viewBox="-20 -20 767.109375 345"><style>#mermaid-1608147164291{font-family:"trebuchet ms",verdana,arial,sans-serif;font-size:16px;fill:#333;}#mermaid-1608147164291 .error-icon{fill:#552222;}#mermaid-1608147164291 .error-text{fill:#552222;stroke:#552222;}#mermaid-1608147164291 .edge-thickness-normal{stroke-width:2px;}#mermaid-1608147164291 .edge-thickness-thick{stroke-width:3.5px;}#mermaid-1608147164291 .edge-pattern-solid{stroke-dasharray:0;}#mermaid-1608147164291 .edge-pattern-dashed{stroke-dasharray:3;}#mermaid-1608147164291 .edge-pattern-dotted{stroke-dasharray:2;}#mermaid-1608147164291 .marker{fill:#333333;}#mermaid-1608147164291 .marker.cross{stroke:#333333;}#mermaid-1608147164291 svg{font-family:"trebuchet ms",verdana,arial,sans-serif;font-size:16px;}#mermaid-1608147164291 g.classGroup text{fill:#9370DB;fill:#131300;stroke:none;font-family:"trebuchet ms",verdana,arial,sans-serif;font-size:10px;}#mermaid-1608147164291 g.classGroup text .title{font-weight:bolder;}#mermaid-1608147164291 .classTitle{font-weight:bolder;}#mermaid-1608147164291 .node rect,#mermaid-1608147164291 .node circle,#mermaid-1608147164291 .node ellipse,#mermaid-1608147164291 .node polygon,#mermaid-1608147164291 .node path{fill:#ECECFF;stroke:#9370DB;stroke-width:1px;}#mermaid-1608147164291 .divider{stroke:#9370DB;stroke:1;}#mermaid-1608147164291 g.clickable{cursor:pointer;}#mermaid-1608147164291 g.classGroup rect{fill:#ECECFF;stroke:#9370DB;}#mermaid-1608147164291 g.classGroup line{stroke:#9370DB;stroke-width:1;}#mermaid-1608147164291 .classLabel .box{stroke:none;stroke-width:0;fill:#ECECFF;opacity:0.5;}#mermaid-1608147164291 .classLabel .label{fill:#9370DB;font-size:10px;}#mermaid-1608147164291 .relation{stroke:#333333;stroke-width:1;fill:none;}#mermaid-1608147164291 .dashed-line{stroke-dasharray:3;}#mermaid-1608147164291 #compositionStart,#mermaid-1608147164291 .composition{fill:#333333 !important;stroke:#333333 !important;stroke-width:1;}#mermaid-1608147164291 #compositionEnd,#mermaid-1608147164291 .composition{fill:#333333 !important;stroke:#333333 !important;stroke-width:1;}#mermaid-1608147164291 #dependencyStart,#mermaid-1608147164291 .dependency{fill:#333333 !important;stroke:#333333 !important;stroke-width:1;}#mermaid-1608147164291 #dependencyStart,#mermaid-1608147164291 .dependency{fill:#333333 !important;stroke:#333333 !important;stroke-width:1;}#mermaid-1608147164291 #extensionStart,#mermaid-1608147164291 .extension{fill:#333333 !important;stroke:#333333 !important;stroke-width:1;}#mermaid-1608147164291 #extensionEnd,#mermaid-1608147164291 .extension{fill:#333333 !important;stroke:#333333 !important;stroke-width:1;}#mermaid-1608147164291 #aggregationStart,#mermaid-1608147164291 .aggregation{fill:#ECECFF !important;stroke:#333333 !important;stroke-width:1;}#mermaid-1608147164291 #aggregationEnd,#mermaid-1608147164291 .aggregation{fill:#ECECFF !important;stroke:#333333 !important;stroke-width:1;}#mermaid-1608147164291 .edgeTerminals{font-size:11px;}#mermaid-1608147164291:root{--mermaid-font-family:"trebuchet ms",verdana,arial,sans-serif;}#mermaid-1608147164291 class{fill:apa;}</style><g></g><defs><marker id="extensionStart" class="extension" refX="0" refY="7" markerWidth="190" markerHeight="240" orient="auto"><path d="M 1,7 L18,13 V 1 Z"></path></marker></defs><defs><marker id="extensionEnd" refX="19" refY="7" markerWidth="20" markerHeight="28" orient="auto"><path d="M 1,1 V 13 L18,7 Z"></path></marker></defs><defs><marker id="compositionStart" class="extension" refX="0" refY="7" markerWidth="190" markerHeight="240" orient="auto"><path d="M 18,7 L9,13 L1,7 L9,1 Z"></path></marker></defs><defs><marker id="compositionEnd" refX="19" refY="7" markerWidth="20" markerHeight="28" orient="auto"><path d="M 18,7 L9,13 L1,7 L9,1 Z"></path></marker></defs><defs><marker id="aggregationStart" class="extension" refX="0" refY="7" markerWidth="190" markerHeight="240" orient="auto"><path d="M 18,7 L9,13 L1,7 L9,1 Z"></path></marker></defs><defs><marker id="aggregationEnd" refX="19" refY="7" markerWidth="20" markerHeight="28" orient="auto"><path d="M 18,7 L9,13 L1,7 L9,1 Z"></path></marker></defs><defs><marker id="dependencyStart" class="extension" refX="0" refY="7" markerWidth="190" markerHeight="240" orient="auto"><path d="M 5,7 L9,13 L1,7 L9,1 Z"></path></marker></defs><defs><marker id="dependencyEnd" refX="19" refY="7" markerWidth="20" markerHeight="28" orient="auto"><path d="M 18,7 L9,13 L14,7 L9,1 Z"></path></marker></defs><g id="classid-SearchFactory-6333" class="classGroup" transform="translate(273.9609375,90 )"><rect x="0" y="0" width="148.6875" height="77" class=" "></rect><text y="15" x="0"><tspan x="49.3828125">«interface»</tspan><tspan class="title" dy="10" x="39.3828125">SearchFactory</tspan></text><line x1="0" y1="31" y2="31" x2="148.6875"></line><text x="5" y="41" fill="white" class="classText"></text><line x1="0" y1="36" y2="36" x2="148.6875"></line><text x="5" y="51" fill="white" class="classText"><tspan x="5">+createEmptySearchFilter()</tspan><tspan x="5" dy="10">+createSearchFilterIntent()</tspan><tspan x="5" dy="10">+createSearchableFragment()</tspan></text></g><g id="classid-SearchableActivity-6334" class="classGroup" transform="translate(0,217.5 )"><rect x="0" y="0" width="149.40625" height="87" class=" "></rect><text y="15" x="0"><tspan x="49.7421875">«interface»</tspan><tspan class="title" dy="10" x="29.734375">SearchableActivity</tspan></text><line x1="0" y1="31" y2="31" x2="149.40625"></line><text x="5" y="41" fill="white" class="classText"></text><line x1="0" y1="36" y2="36" x2="149.40625"></line><text x="5" y="51" fill="white" class="classText"><tspan x="5">+showLoadingAnimation()</tspan><tspan x="5" dy="10">+hideLoadingAnimation()</tspan><tspan x="5" dy="10">+notifyInvalidFilter()</tspan><tspan x="5" dy="10">+setAppBarTitle(title: String)</tspan></text></g><g id="classid-SearchableFragment-6335" class="classGroup" transform="translate(199.40625,217 )"><rect x="0" y="0" width="297.796875" height="88" class=" "></rect><text y="15" x="0"><tspan x="125.328125">«abstract»</tspan><tspan class="title" dy="10" x="39.3203125">SearchableFragment&lt;Filter: SearchableFilter&gt;</tspan></text><line x1="0" y1="31" y2="31" x2="297.796875"></line><text x="5" y="41" fill="white" class="classText"><tspan x="5">#searchableActivity: SearchableActivity</tspan></text><line x1="0" y1="47" y2="47" x2="297.796875"></line><text x="5" y="62" fill="white" class="classText"><tspan x="5">+newInstance(filter: SearchFilter) : SearchableFragment&lt;Filter&gt;</tspan><tspan x="5" style="font-style:italic;" dy="10">#createSearchableFragment() : SearchableFragment&lt;Filter&gt;</tspan><tspan x="5" dy="10">#getSearchFilter() : Filter</tspan></text></g><g id="classid-SearchFilter-6336" class="classGroup" transform="translate(547.203125,222.5 )"><rect x="0" y="0" width="179.90625" height="77" class=" "></rect><text y="15" x="0"><tspan x="66.3828125">«abstract»</tspan><tspan class="title" dy="10" x="60.984375">SearchFilter</tspan></text><line x1="0" y1="31" y2="31" x2="179.90625"></line><text x="5" y="41" fill="white" class="classText"></text><line x1="0" y1="36" y2="36" x2="179.90625"></line><text x="5" y="51" fill="white" class="classText"><tspan x="5" style="text-decoration:underline;">+getFilterFrom(bundle) : SearchFilter</tspan><tspan x="5" style="font-style:italic;" dy="10">+isEmpty() : boolean</tspan><tspan x="5" style="font-style:italic;" dy="10">+toBundle() : Bundle</tspan></text></g><g id="classid-Parcelable-6337" class="classGroup" transform="translate(437.75390625,0 )"><rect x="0" y="0" width="109.953125" height="40" class=" "></rect><text y="15" x="0"><tspan x="30.015625">«interface»</tspan><tspan class="title" dy="10" x="29.734375">Parcelable</tspan></text><line x1="0" y1="31" y2="31" x2="109.953125"></line><text x="5" y="41" fill="white" class="classText"></text><line x1="0" y1="36" y2="36" x2="109.953125"></line><text x="5" y="51" fill="white" class="classText"></text></g><path d="M437.75390625,37.12952695210018L422.845703125,41.77460579341682C407.9375,46.41968463473345,378.12109375,55.70984231736673,363.212890625,64.52158782535003C348.3046875,73.33333333333333,348.3046875,81.66666666666667,348.3046875,85.83333333333333L348.3046875,90" id="edge3047" class="relation dashed-line" marker-start="url(#extensionStart)"></path><path d="M547.70703125,36.02028684896163L564.2819010416666,40.85023904080136C580.8567708333334,45.680191232641086,614.0065104166666,55.340095616320546,630.5813802083334,70.7533811414936C647.15625,86.16666666666667,647.15625,107.33333333333333,647.15625,128.5C647.15625,149.66666666666666,647.15625,170.83333333333334,646.4195350241546,186.5C645.6828200483092,202.16666666666666,644.2093900966183,212.33333333333334,643.4726751207729,217.41666666666666L642.7359601449275,222.5" id="edge3048" class="relation dashed-line" marker-start="url(#extensionStart)"></path><path d="M273.9609375,145.75439022300904L240.75130208333334,153.46199185250754C207.54166666666666,161.16959348200604,141.12239583333334,176.58479674100303,107.91276041666667,188.5423983705015C74.703125,200.5,74.703125,209,74.703125,213.25L74.703125,217.5" id="edge3049" class="relation" marker-end="url(#dependencyEnd)"></path><path d="M348.3046875,167L348.3046875,171.16666666666666C348.3046875,175.33333333333334,348.3046875,183.66666666666666,348.3046875,192C348.3046875,200.33333333333334,348.3046875,208.66666666666666,348.3046875,212.83333333333334L348.3046875,217" id="edge3050" class="relation" marker-end="url(#dependencyEnd)"></path><path d="M422.6484375,159.0702071686945L435.9954427083333,164.5585059739121C449.3424479166667,170.04680477912967,476.0364583333333,181.02340238956484,499.28681216032606,191.59503452811578C522.5371659873189,202.16666666666666,542.3438632246376,212.33333333333334,552.2472118432971,217.41666666666666L562.1505604619565,222.5" id="edge3051" class="relation" marker-end="url(#dependencyEnd)"></path></svg>